<svg width="99" height="32" viewBox="0 0 99 32" fill="none" xmlns="http://www.w3.org/2000/svg">
<g clip-path="url(#clip0_1:19)">
<path d="M0 19.4137C0.0888955 11.6067 4.17809 7.68832 12.238 7.58442L13.0973 7.56958L13.1862 13.8627L11.1416 13.8924C7.77836 13.9369 6.10416 15.7328 6.14861 19.2505L6.31158 31.7922L0.162975 31.8664L0 19.4137Z" fill="black"/>
<path d="M36.3731 21.7885C36.4324 25.9444 35.4101 28.6902 33.2914 30.0408C31.1727 31.3024 28.8022 31.9703 26.2094 32C23.7055 32.0297 21.4683 31.3766 19.3496 30.0408C17.2457 28.7496 16.1642 26.1076 16.1049 22.0557L15.9271 7.55475L21.9868 7.48054L22.1794 23.2134C22.2091 25.8998 23.6018 27.206 26.3279 27.1763C29.054 27.1466 30.4023 25.7959 30.3726 23.1095L30.2097 10.3896C30.1356 8.38592 31.0838 7.3618 33.084 7.34696L36.1805 7.30243L36.3731 21.7885Z" fill="#E02055"/>
<path d="M50.0926 12.1707C46.4924 12.2152 44.9811 15.2431 45.0256 18.9388L45.1886 31.3024L39.1289 31.3766L38.7288 0.356238L41.7809 0.311711C43.7959 0.296868 44.8034 1.33583 44.833 3.33954L44.9219 10.5529C47.974 6.96106 51.7372 5.90726 56.2709 7.43601C59.6489 8.6234 61.2935 11.8442 61.1749 17.0835L61.3527 31.0798L55.3375 31.154L55.1745 18.7904C55.13 14.7533 53.5447 12.1262 50.0926 12.1707Z" fill="black"/>
<path d="M75.3982 11.8442C71.798 11.8887 70.2867 14.9166 70.3312 18.6123L70.4942 30.9759L64.4345 31.0501L64.0344 0.0297235L67.1013 3.88739e-05C69.1015 -0.0296457 70.1238 1.00932 70.1386 3.01303L70.2275 10.2264C73.2796 6.63455 77.0428 5.58074 81.5765 7.12434C84.9545 8.31173 86.5991 11.5325 86.4806 16.7718L86.6583 30.7681L80.6431 30.8423L80.4801 18.4787C80.4505 14.4268 78.8652 11.7997 75.3982 11.8442Z" fill="black"/>
<path d="M92.4662 23.1243C93.1181 22.7533 93.8441 22.5603 94.6441 22.5603C95.4442 22.5603 96.185 22.7533 96.8517 23.1243C97.5184 23.4954 98.037 24.0148 98.4222 24.6531C98.8074 25.3061 99 26.0186 99 26.82C99 27.6067 98.8074 28.3191 98.4222 28.9573C98.037 29.6104 97.5184 30.115 96.8517 30.4861C96.185 30.8571 95.4442 31.0353 94.6441 31.0353C93.8441 31.0353 93.1181 30.8571 92.4662 30.4861C91.8143 30.115 91.2809 29.6104 90.8957 28.9722C90.5105 28.334 90.3179 27.6215 90.3179 26.8349C90.3179 26.0334 90.5105 25.321 90.8957 24.6679C91.2809 24.0148 91.8143 23.4954 92.4662 23.1243ZM96.348 23.8961C95.8442 23.5993 95.2812 23.4657 94.6441 23.4657C94.0219 23.4657 93.4589 23.6141 92.9551 23.8961C92.4514 24.193 92.0513 24.5937 91.7698 25.1132C91.4735 25.6327 91.3402 26.2115 91.3402 26.8349C91.3402 27.4583 91.4883 28.0223 91.7698 28.5269C92.0662 29.0315 92.4514 29.4323 92.9551 29.7143C93.4589 30.0111 94.0219 30.1447 94.6441 30.1447C95.2812 30.1447 95.8442 29.9963 96.348 29.7143C96.8517 29.4174 97.2517 29.0167 97.5332 28.5121C97.8295 28.0074 97.9629 27.4286 97.9629 26.82C97.9629 26.1818 97.8147 25.6178 97.5332 25.0983C97.2517 24.5937 96.8517 24.193 96.348 23.8961ZM96.1405 24.9202C96.4665 25.1874 96.6295 25.5584 96.6295 26.0186C96.6295 26.3302 96.5406 26.5974 96.3776 26.8349C96.2146 27.0724 95.9776 27.2356 95.6664 27.3544L96.6739 29.1354H95.5627L94.6738 27.5622H94.0219V29.1354H93.0144V24.5343H94.8367C95.3849 24.5195 95.8146 24.6531 96.1405 24.9202ZM94.7775 26.7161C95.0145 26.7161 95.2219 26.6568 95.3553 26.5232C95.5034 26.3896 95.5775 26.2263 95.5775 26.0037C95.5775 25.7811 95.5034 25.6178 95.3701 25.5139C95.2368 25.41 95.0293 25.3358 94.7775 25.3358H94.0367V26.7161H94.7775Z" fill="black"/>
</g>
<defs>
<clipPath id="clip0_1:19">
<rect width="99" height="32" fill="white"/>
</clipPath>
</defs>
</svg>
